<?xml version="1.0" encoding="utf-8"?>
<!-- Generator: Adobe Illustrator 23.0.6, SVG Export Plug-In . SVG Version: 6.00 Build 0)  -->
<svg version="1.1" id="Vrstva_1" xmlns="http://www.w3.org/2000/svg" xmlns:xlink="http://www.w3.org/1999/xlink" x="0px" y="0px"
	 viewBox="0 0 450 80" style="enable-background:new 0 0 450 80;" xml:space="preserve">
<style type="text/css">
	.st0{fill:#23492F;}
	.st1{fill:#FFFFFF;}
</style>
<path class="st0" d="M161.8,6.1H12.6c-1.2,0-2.2,1-2.2,2.2v64.6c0,1.2,1,2.2,2.2,2.2h149.2c19.1,0,34.5-15.4,34.5-34.5
	S180.9,6.1,161.8,6.1z M85.5,69.1h-69v-57h69V69.1z M91.5,12.1h18v57h-18V12.1z M161.3,69.1h-45.9v-57h45.9
	c16.5,0,28.4,11.8,28.4,28.5S177.8,69.1,161.3,69.1z"/>
<path class="st1" d="M91.5,12.1h18v57h-18V12.1z"/>
<path class="st0" d="M232.7,12.1c6.6,0,11.9,5.3,11.9,11.8s-5.3,11.9-11.8,11.9c-6.6,0-11.9-5.3-11.9-11.8c0,0,0,0,0,0
	C220.8,17.5,226.1,12.2,232.7,12.1C232.6,12.2,232.7,12.2,232.7,12.1z M232.7,31.6c4.2,0,7.6-3.4,7.6-7.6s-3.4-7.6-7.6-7.6
	c-4.2,0-7.6,3.4-7.6,7.6c0,0,0,0,0,0.1C225.1,28.2,228.5,31.6,232.7,31.6z M248.5,13.1c0-0.3,0.3-0.6,0.6-0.6h7.6c3.9,0,7,2.6,7,6.1
	c-0.2,2.3-1.6,4.3-3.7,5.3c1.7,0.6,4.3,2.3,4.3,5.4c0,3.7-3.2,6.4-7.2,6.4h-8c-0.3,0-0.6-0.3-0.6-0.6L248.5,13.1z M256.3,22.2
	c1.6,0,2.8-1.2,2.8-2.8c0-0.1,0-0.1,0-0.2c0.1-1.5-1.1-2.7-2.6-2.8c-0.1,0-0.2,0-0.3,0h-3.5v5.8L256.3,22.2z M256.7,31.7
	c1.7,0,3-1.3,3-3c-0.2-1.7-1.7-3-3.4-2.9h-3.6v5.9L256.7,31.7z M268.5,13.1c0-0.3,0.3-0.6,0.6-0.6h13.4c0.3,0,0.6,0.3,0.6,0.6v2.7
	c0,0.3-0.3,0.6-0.6,0.6h-9.8v5.4h8.2c0.3,0,0.6,0.3,0.6,0.6v2.7c0,0.3-0.3,0.6-0.6,0.6l0,0h-8.1v5.8h9.8c0.3,0,0.6,0.3,0.6,0.6V35
	c0,0.3-0.3,0.6-0.6,0.6h-13.5c-0.3,0-0.6-0.3-0.6-0.6V13.1z M271.3,7c-0.2-0.1-0.3-0.4-0.2-0.6c0,0,0,0,0,0l0.9-1.2
	c0.2-0.3,0.4-0.3,0.8-0.1l3.2,2l3.2-2c0.4-0.2,0.6-0.2,0.8,0.1l0.9,1.2c0.2,0.2,0,0.5-0.2,0.6l-4.3,3.3c-0.2,0.2-0.5,0.2-0.7,0
	L271.3,7z M291.1,16.4H286c-0.3,0-0.6-0.3-0.6-0.6v-2.7c0-0.3,0.3-0.6,0.6-0.6l0,0h14.4c0.3,0,0.6,0.3,0.6,0.6c0,0,0,0,0,0v2.7
	c0,0.3-0.3,0.6-0.6,0.6c0,0,0,0,0,0h-5V35c0,0.3-0.3,0.6-0.6,0.6h-3.1c-0.3,0-0.6-0.3-0.6-0.6L291.1,16.4z M303.9,13.1
	c0-0.3,0.3-0.6,0.6-0.6h3.1c0.3,0,0.6,0.3,0.6,0.6V35c0,0.3-0.3,0.6-0.6,0.6h-3.1c-0.3,0-0.6-0.3-0.6-0.6V13.1z M232.7,48.2
	c6.6,0,11.9,5.3,11.9,11.8s-5.3,11.9-11.8,11.9c-6.6,0-11.9-5.3-11.9-11.8c0,0,0,0,0,0C220.8,53.5,226.1,48.2,232.7,48.2
	C232.6,48.2,232.7,48.2,232.7,48.2z M232.7,67.6c4.2,0,7.6-3.4,7.6-7.6s-3.4-7.6-7.6-7.6c-4.2,0-7.6,3.4-7.6,7.6c0,0,0,0,0,0.1
	C225.1,64.2,228.5,67.6,232.7,67.6z M248.5,49.3c0-0.4,0.3-0.8,0.8-0.8c0,0,0,0,0,0h2.9c0.4,0,0.8,0.4,0.8,0.8v8.9l8.3-9.4
	c0.1-0.2,0.4-0.3,0.6-0.3h3.3c0.4,0,0.7,0.3,0.7,0.7c0,0.2-0.1,0.4-0.2,0.5l-8.6,9.7l9.3,11.1c0.2,0.3,0.2,0.8-0.2,1
	c-0.1,0.1-0.3,0.1-0.4,0.1h-3.6c-0.2,0-0.4-0.1-0.6-0.2L253,60.7v10.1c0,0.4-0.4,0.8-0.8,0.8h-2.9c-0.4,0-0.8-0.4-0.8-0.8
	c0,0,0,0,0,0L248.5,49.3z M268.9,49.1c0-0.3,0.3-0.6,0.6-0.6h3.1c0.3,0,0.6,0.3,0.6,0.6v13.5c-0.1,2.7,1.9,4.9,4.6,5
	c2.7,0.1,4.9-1.9,5-4.6c0-0.1,0-0.3,0-0.4V49.1c0-0.3,0.3-0.6,0.6-0.6h3.1c0.3,0,0.6,0.3,0.6,0.6v13.7c-0.2,5.1-4.4,9.1-9.5,8.9
	c-4.8-0.2-8.7-4-8.9-8.9V49.1z M292.6,49.1c0-0.3,0.3-0.6,0.6-0.6l0,0h7.8c4.1,0,7.4,3.3,7.4,7.4s-3.3,7.4-7.4,7.4h-4.1V71
	c0,0.3-0.3,0.6-0.6,0.6h-3c-0.3,0-0.6-0.3-0.6-0.6l0,0L292.6,49.1z M300.7,59.2c1.9,0,3.4-1.5,3.4-3.4c0,0,0,0,0,0
	c0-1.8-1.6-3.2-3.4-3.2c0,0,0,0,0,0h-3.8v6.6H300.7z M307,70.7l10.3-22.2c0.1-0.2,0.3-0.4,0.6-0.4h0.3c0.2,0,0.5,0.1,0.6,0.4
	l10.2,22.2c0.2,0.3,0.1,0.6-0.2,0.8c-0.1,0.1-0.2,0.1-0.3,0.1h-2.9c-0.4,0-0.8-0.3-1-0.7l-1.6-3.6H313l-1.6,3.6
	c-0.1,0.4-0.6,0.7-1,0.7h-2.9c-0.3,0-0.6-0.2-0.6-0.6C306.9,70.9,307,70.8,307,70.7L307,70.7z M321.3,63.7l-3.3-7.3h-0.1l-3.3,7.2
	L321.3,63.7z M340.8,48.2c3-0.1,5.8,1,8,3.1c0.3,0.2,0.3,0.6,0.1,0.9c0,0,0,0-0.1,0.1l-2,2.1c-0.2,0.2-0.5,0.3-0.7,0.1
	c0,0-0.1-0.1-0.1-0.1c-1.4-1.2-3.2-1.9-5.1-1.9c-4.2,0.2-7.5,3.7-7.4,7.9c0.1,4,3.4,7.2,7.4,7.4c1.9,0,3.7-0.7,5.1-1.9
	c0.2-0.2,0.6-0.2,0.8,0l2,2.1c0.2,0.2,0.2,0.6,0,0.9c-2.1,2.1-5,3.2-8,3.2c-6.6,0.2-12-5-12.2-11.5c-0.2-6.6,5-12,11.5-12.2
	C340.4,48.1,340.7,48.1,340.8,48.2L340.8,48.2z M352.5,49.1c0-0.3,0.3-0.6,0.6-0.6l0,0h13.4c0.3,0,0.6,0.3,0.6,0.6c0,0,0,0,0,0v2.7
	c0,0.3-0.3,0.6-0.6,0.6c0,0,0,0,0,0h-9.8v5.4h8.2c0.3,0,0.6,0.3,0.6,0.6v2.7c0,0.3-0.3,0.6-0.6,0.6c0,0,0,0,0,0h-8.2v5.8h9.8
	c0.3,0,0.6,0.3,0.6,0.6l0,0V71c0,0.3-0.3,0.6-0.6,0.6l0,0h-13.4c-0.3,0-0.6-0.3-0.6-0.6l0,0V49.1z M380.8,55.2l-2.9,0.6
	c-0.3,0.1-0.6-0.1-0.7-0.4l-0.2-1.6c0-0.2,0-0.4,0.2-0.6l4.8-4h2.3c0.3,0,0.6,0.3,0.6,0.6V71c0,0.3-0.3,0.6-0.6,0.6h-2.8
	c-0.3,0-0.6-0.3-0.6-0.6l0,0V55.2z M391.8,68.8c1.5-0.5,6.2-2.7,7.3-6.3c-1.2,0.6-2.5,0.9-3.8,0.9c-3.7,0-6.7-3-6.7-6.7
	c0-0.1,0-0.3,0-0.4c0-4.1,3.3-7.5,7.5-7.6c5.2,0,7.9,4.2,7.9,9.1c0,9.6-8.1,13.5-11,14.4c-0.3,0.2-0.7,0-0.9-0.3c0,0,0-0.1,0-0.1
	l-0.8-2C391,69.3,391.1,68.9,391.8,68.8z M399.9,57.2c0-2.3-1.2-4.8-3.9-4.8c-2.1,0-3.9,1.7-3.9,3.9s1.7,3.9,3.9,3.9l0,0
	C397.8,60.1,399.3,58.9,399.9,57.2z M417.2,48.4c0.3-0.2,0.7,0,0.9,0.3c0,0,0,0.1,0,0.1l0.8,2c0.2,0.4,0,0.8-0.6,1
	c-1.5,0.5-6.2,2.7-7.3,6.3c1.2-0.6,2.5-0.9,3.8-0.9c3.7,0,6.7,3,6.8,6.7c0,0.1,0,0.3,0,0.4c0,4.1-3.4,7.5-7.5,7.5
	c-5.2,0-7.9-4.2-7.9-9.1C406.2,53.2,414.3,49.3,417.2,48.4z M417.8,64.3c0-2.1-1.7-3.8-3.8-3.9c-1.8,0-3.3,1.2-3.8,2.9
	c0,2.2,1.2,4.9,3.9,4.9C416.1,68.1,417.8,66.4,417.8,64.3z M427.9,60.1L427.9,60.1c-1.4-0.8-3.4-2.6-3.4-5.2c0-3.7,3.2-6,7.2-6
	s7.3,2.4,7.3,6c0,2.5-2,4.3-3.4,5.1v0.1c1.5,0.8,4,2.7,4,5.5c0,3.6-3,6.3-7.9,6.3s-7.8-2.7-7.8-6.3C423.9,62.7,427,60.5,427.9,60.1
	L427.9,60.1z M431.7,68.6c1.8,0.1,3.3-1.2,3.4-3c0,0,0,0,0,0c0-1.5-1.2-3-3.4-3.5c-2.2,0.5-3.4,2-3.4,3.5
	C428.4,67.3,429.9,68.7,431.7,68.6z M434.7,55c-0.1-1.6-1.4-2.9-3-2.8c0,0,0,0-0.1,0c-1.6,0-2.9,1.2-2.9,2.8c0,1.5,0.9,2.6,3,3.1
	C433.8,57.7,434.7,56.4,434.7,55L434.7,55z"/>
</svg>
